<?xml version="1.0" encoding="UTF-8" standalone="no"?>
<!-- Generator: Adobe Illustrator 15.0.0, SVG Export Plug-In . SVG Version: 6.00 Build 0)  -->

<svg
   xmlns:dc="http://purl.org/dc/elements/1.1/"
   xmlns:cc="http://creativecommons.org/ns#"
   xmlns:rdf="http://www.w3.org/1999/02/22-rdf-syntax-ns#"
   xmlns:svg="http://www.w3.org/2000/svg"
   xmlns="http://www.w3.org/2000/svg"
   xmlns:sodipodi="http://sodipodi.sourceforge.net/DTD/sodipodi-0.dtd"
   xmlns:inkscape="http://www.inkscape.org/namespaces/inkscape"
   version="1.1"
   id="Icons"
   x="0px"
   y="0px"
   width="450"
   height="100"
   viewBox="0 0 450 100"
   xml:space="preserve"
   inkscape:version="0.48.3.1 r9886"
   sodipodi:docname="munra-social.svg"><metadata
   id="metadata8"><rdf:RDF><cc:Work
       rdf:about=""><dc:format>image/svg+xml</dc:format><dc:type
         rdf:resource="http://purl.org/dc/dcmitype/StillImage" /><dc:title></dc:title></cc:Work></rdf:RDF></metadata><defs
   id="defs6" /><sodipodi:namedview
   pagecolor="#ffffff"
   bordercolor="#666666"
   borderopacity="1"
   objecttolerance="10"
   gridtolerance="10"
   guidetolerance="10"
   inkscape:pageopacity="0"
   inkscape:pageshadow="2"
   inkscape:window-width="1280"
   inkscape:window-height="724"
   id="namedview4"
   showgrid="false"
   inkscape:zoom="2.36"
   inkscape:cx="229.3994"
   inkscape:cy="32.991924"
   inkscape:window-x="0"
   inkscape:window-y="24"
   inkscape:window-maximized="1"
   inkscape:current-layer="Icons"
   showguides="true"
   inkscape:guide-bbox="true"><sodipodi:guide
     orientation="0,1"
     position="218.12446,517.74598"
     id="guide3899" /><sodipodi:guide
     orientation="0,1"
     position="203.74263,487.18459"
     id="guide3901" /><sodipodi:guide
     orientation="1,0"
     position="98.875101,481.19216"
     id="guide3903" /><sodipodi:guide
     orientation="1,0"
     position="128.83725,463.21487"
     id="guide3905" /><sodipodi:guide
     orientation="1,0"
     position="136.62741,466.21108"
     id="guide3907" /><sodipodi:guide
     orientation="1,0"
     position="166.58956,451.23001"
     id="guide3909" /><sodipodi:guide
     orientation="1,0"
     position="91.684184,474.00124"
     id="guide3911" /><sodipodi:guide
     orientation="1,0"
     position="61.722033,475.19973"
     id="guide3913" /><sodipodi:guide
     orientation="1,0"
     position="174.37972,454.82546"
     id="guide3915" /><sodipodi:guide
     orientation="1,0"
     position="204.94112,449.43228"
     id="guide3917" /><sodipodi:guide
     orientation="1,0"
     position="212.73128,450.03152"
     id="guide3919" /><sodipodi:guide
     orientation="1,0"
     position="242.69343,459.02016"
     id="guide3921" /><sodipodi:guide
     orientation="1,0"
     position="250.48359,465.01259"
     id="guide3931" /><sodipodi:guide
     orientation="1,0"
     position="280.44574,452.42849"
     id="guide3933" /><sodipodi:guide
     orientation="1,0"
     position="288.2359,414.07694"
     id="guide3935" /><sodipodi:guide
     orientation="1,0"
     position="318.19805,442.8406"
     id="guide3937" /><sodipodi:guide
     orientation="1,0"
     position="325.98821,469.80654"
     id="guide3939" /><sodipodi:guide
     orientation="1,0"
     position="355.95036,462.61562"
     id="guide3941" /><sodipodi:guide
     orientation="1,0"
     position="363.74052,470.40578"
     id="guide3943" /><sodipodi:guide
     orientation="1,0"
     position="393.70267,462.01638"
     id="guide3945" /><sodipodi:guide
     orientation="1,0"
     position="401.49283,458.42092"
     id="guide3947" /><sodipodi:guide
     orientation="1,0"
     position="431.45499,463.81411"
     id="guide3949" /><sodipodi:guide
     orientation="1,0"
     position="52.808293,60.223925"
     id="guide4064" /><sodipodi:guide
     orientation="1,0"
     position="22.881356,112.28814"
     id="guide4066" /><sodipodi:guide
     orientation="0,1"
     position="335.80508,86.440678"
     id="guide4085" /><sodipodi:guide
     orientation="0,1"
     position="325.98821,55.720339"
     id="guide4087" /><sodipodi:guide
     orientation="0,1"
     position="83.898305,46.186441"
     id="guide4101" /><sodipodi:guide
     orientation="0,1"
     position="91.684184,16.101695"
     id="guide4103" /></sodipodi:namedview>
<g
   id="g4022"
   transform="matrix(1,0,0,0.98163075,-37.153066,-66.463418)"><rect
     y="82.254021"
     x="98.875099"
     height="30.56139"
     width="29.962149"
     id="rect3951"
     style="fill:none;stroke:none" /><path
     inkscape:connector-curvature="0"
     d="m 125.43825,96.753142 c 1.685,-0.138791 2.82767,-0.903633 3.26767,-1.941393 -0.608,0.372767 -2.49467,0.779151 -3.53667,0.392069 -0.051,-0.244295 -0.108,-0.476607 -0.164,-0.686289 -0.794,-2.910925 -3.51234,-5.256039 -6.36066,-4.972804 0.23032,-0.09286 0.464,-0.179395 0.69733,-0.256945 0.31333,-0.112163 2.153,-0.41104 1.86333,-1.059393 -0.24434,-0.570136 -2.49167,0.431016 -2.91467,0.561813 0.55834,-0.209681 1.48233,-0.570466 1.581,-1.2115 -0.85567,0.117157 -1.69566,0.521215 -2.34467,1.108658 0.23434,-0.251951 0.412,-0.558821 0.44967,-0.889319 -2.28267,1.456125 -3.616,4.39168 -4.695,7.239034 -0.84733,-0.819755 -1.59833,-1.465446 -2.272,-1.823905 -1.89,-1.012133 -4.14967,-2.067867 -7.697,-3.382877 -0.109,1.171893 0.58033,2.730197 2.56667,3.766299 -0.43033,-0.05757 -1.21733,0.07089 -1.84667,0.221327 0.25634,1.342634 1.09334,2.44863 3.35967,2.983485 -1.03567,0.06824 -1.571,0.303541 -2.056,0.810772 0.47167,0.933587 1.62266,2.032587 3.69333,1.806934 -2.302,0.990832 -0.93867,2.825722 0.93467,2.551802 -3.19567,3.29567 -8.23401,3.05371 -11.127,0.29721 7.55366,10.27745 23.97367,6.07813 26.42067,-3.821208 1.833,0.01563 2.91099,-0.634039 3.57933,-1.350292 -1.05633,0.179064 -2.587,-0.0062 -3.399,-0.343478 z"
     id="Twitter__x28_alt_x29_" /></g>
<g
   id="g4016"
   transform="matrix(1.0012632,0,0,0.98163075,-38.524152,-66.463418)"><path
     d="m 158.35945,103.31701 h -1.36757 l 0.007,-0.79424 c 0,-0.35296 0.28985,-0.64171 0.6442,-0.64171 h 0.0872 c 0.3549,0 0.64558,0.28875 0.64558,0.64171 l -0.0158,0.79424 z m -5.12894,-1.70198 c -0.34688,0 -0.63064,0.23309 -0.63064,0.51851 v 3.86269 c 0,0.28486 0.28376,0.51741 0.63064,0.51741 0.34826,0 0.63229,-0.23255 0.63229,-0.51741 v -3.86269 c 0,-0.2857 -0.28403,-0.51851 -0.63229,-0.51851 z m 8.32917,-2.160706 v 7.348326 c 0,1.76262 -1.52869,3.20493 -3.39678,3.20493 h -13.96888 c -1.86892,0 -3.39706,-1.44231 -3.39706,-3.20493 v -7.348326 c 0,-1.762613 1.52814,-3.205206 3.39706,-3.205206 h 13.96888 c 1.86809,0 3.39678,1.442593 3.39678,3.205206 z m -16.43383,8.146176 -8.3e-4,-7.740614 1.73161,5.57e-4 V 98.71351 l -4.61597,-0.0066 v 1.127549 l 1.44094,0.0042 v 7.762211 h 1.44453 z m 5.19068,-6.58759 h -1.4437 v 4.13343 c 0,0.59797 0.0363,0.89695 -0.002,1.00243 -0.11737,0.32057 -0.64503,0.6608 -0.85071,0.0346 -0.0349,-0.10963 -0.004,-0.44044 -0.005,-1.00851 l -0.006,-4.16195 h -1.43568 l 0.004,4.09634 c 8.3e-4,0.62786 -0.0141,1.09627 0.005,1.30915 0.0351,0.37568 0.0227,0.8139 0.37124,1.06389 0.64946,0.46813 1.89439,-0.0698 2.20583,-0.7386 l -0.002,0.85349 1.15939,0.002 v -6.58565 z m 4.61846,4.73334 -0.003,-3.44024 c -8.3e-4,-1.3111 -0.98194,-2.09648 -2.31352,-1.03564 l 0.006,-2.55769 -1.44232,0.0025 -0.007,8.8283 1.18569,-0.0174 0.10796,-0.54979 c 1.51596,1.39054 2.46856,0.43795 2.46634,-1.22971 z m 4.51824,-0.45595 -1.0827,0.006 c -5.6e-4,0.0429 -0.002,0.0925 -0.002,0.14644 v 0.60407 c 0,0.32306 -0.26715,0.58633 -0.59161,0.58633 h -0.21205 c -0.325,0 -0.59188,-0.26327 -0.59188,-0.58633 v -0.067 -0.6644 -0.85736 h 2.47879 v -0.93295 c 0,-0.68184 -0.0174,-1.3634 -0.0739,-1.7532 -0.17717,-1.23301 -1.90795,-1.42874 -2.78221,-0.79756 -0.27462,0.19711 -0.48418,0.46093 -0.60599,0.81556 -0.12319,0.35463 -0.18409,0.83909 -0.18409,1.45449 v 2.05108 c 2.7e-4,3.41007 4.14229,2.9281 3.64814,-0.005 z m -5.55278,-11.136555 c 0.0745,0.181051 0.19019,0.327768 0.34715,0.438508 0.15503,0.109071 0.35352,0.163885 0.59078,0.163885 0.20817,0 0.39254,-0.05623 0.55311,-0.17219 0.16001,-0.11544 0.29483,-0.287912 0.40474,-0.517963 l -0.0272,0.566407 h 1.60925 v -6.843664 h -1.2668 v 5.326325 c 0,0.28846 -0.23753,0.524607 -0.52793,0.524607 -0.28874,0 -0.5271,-0.236147 -0.5271,-0.524607 v -5.326325 h -1.32217 v 4.615966 c 0,0.588 0.0105,0.98 0.028,1.178766 0.0185,0.197387 0.0637,0.386743 0.13814,0.570285 z m -4.87675,-3.865187 c 0,-0.656932 0.0548,-1.169912 0.16361,-1.539762 0.10963,-0.368472 0.30646,-0.664689 0.59161,-0.888096 0.28431,-0.224512 0.64834,-0.336904 1.091,-0.336904 0.37235,0 0.69127,0.07308 0.95786,0.216206 0.2677,0.143952 0.47394,0.330816 0.61734,0.561424 0.1459,0.231438 0.245,0.469237 0.29788,0.712576 0.054,0.246661 0.0806,0.618729 0.0806,1.12063 v 1.73078 c 0,0.634791 -0.0255,1.10181 -0.0747,1.398302 -0.049,0.297322 -0.1542,0.573051 -0.31698,0.831613 -0.16085,0.255797 -0.36819,0.447096 -0.61956,0.569181 -0.25414,0.123189 -0.54482,0.183542 -0.87314,0.183542 -0.36681,0 -0.67576,-0.05066 -0.93045,-0.156418 -0.25552,-0.105192 -0.45291,-0.263819 -0.59354,-0.474494 -0.14201,-0.21095 -0.24196,-0.467851 -0.3023,-0.76739 -0.0606,-0.299257 -0.0894,-0.749393 -0.0894,-1.349302 v -1.811888 z m 1.26044,2.718529 c 0,0.387573 0.28846,0.703997 0.63977,0.703997 0.35158,0 0.63866,-0.316424 0.63866,-0.703997 V 89.36392 c 0,-0.387017 -0.28708,-0.703441 -0.63866,-0.703441 -0.35131,0 -0.63977,0.316424 -0.63977,0.703441 v 3.643167 z m -4.45374,1.839576 h 1.51817 l 0.002,-5.248814 1.7939,-4.496372 h -1.66046 l -0.9537,3.339748 -0.96727,-3.348884 h -1.6433 l 1.90851,4.508 0.002,5.246322 z"
     id="YouTube"
     inkscape:connector-curvature="0" /><rect
     y="82.254021"
     x="136.62741"
     height="30.56139"
     width="29.962151"
     id="rect3957"
     style="fill:none;stroke:none" /></g><g
   id="g4010"
   transform="matrix(0.98163026,0,0,0.98163075,-35.148248,-66.463418)"><path
     d="m 187.19259,90.341781 c 0,0.550077 0,3.00529 0,3.00529 h -2.20176 v 3.674945 h 2.20176 v 10.920514 h 4.52309 V 97.022256 h 3.03488 c 0,0 0.28425,-1.76204 0.42202,-3.688762 -0.3951,0 -3.43992,0 -3.43992,0 0,0 0,-2.137976 0,-2.512693 0,-0.375452 0.49308,-0.880658 0.98058,-0.880658 0.48654,0 1.5132,0 2.46419,0 0,-0.50036 0,-2.229167 0,-3.825796 -1.26969,0 -2.71376,0 -3.35042,0 -4.74623,-2.4e-4 -4.63442,3.678332 -4.63442,4.227434 z"
     id="Facebook"
     inkscape:connector-curvature="0" /><rect
     y="82.254021"
     x="174.37971"
     height="30.56139"
     width="30.561405"
     id="rect3963"
     style="fill:none;stroke:none" /></g><g
   id="g4001"
   transform="matrix(1.0012632,0,0,0.98163075,-38.62029,-66.463418)"><g
     transform="matrix(0.25411938,0,0,0.25411938,151.40328,48.498919)"
     id="g3926"><path
       inkscape:connector-curvature="0"
       id="Google"
       d="m 317.79544,148.38035 h -24.355 c -6.383,0 -14.422,0.942 -21.158,6.49 -5.09,4.374 -7.566,10.392 -7.566,15.828 0,9.211 7.094,18.546 19.625,18.546 1.182,0 2.477,-0.12 3.787,-0.235 -0.592,1.413 -1.189,2.594 -1.189,4.605 0,3.663 1.893,5.903 3.547,8.03 -5.314,0.352 -15.248,0.942 -22.582,5.428 -6.975,4.142 -9.107,10.16 -9.107,14.414 -0.002,8.74 8.277,16.894 25.422,16.894 20.336,0 31.098,-11.22 31.098,-22.33 0,-8.142 -4.73,-12.164 -9.932,-16.534 l -4.258,-3.305 c -1.295,-1.065 -3.068,-2.479 -3.068,-5.08 0,-2.597 1.773,-4.254 3.307,-5.789 4.963,-3.896 9.932,-8.03 9.932,-16.77 0,-8.979 -5.68,-13.704 -8.396,-15.947 h 7.334 l 7.559,-4.245 z m -10.396,72.279 c 0,7.323 -6.033,12.753 -17.385,12.753 -12.648,0 -20.809,-6.024 -20.809,-14.405 0,-8.392 7.568,-11.218 10.166,-12.164 4.969,-1.656 11.352,-1.891 12.414,-1.891 1.184,0 1.775,0 2.725,0.116 8.988,6.377 12.889,9.569 12.889,15.591 z m -9.461,-38.03 c -1.893,1.886 -5.088,3.305 -8.045,3.305 -10.164,0 -14.773,-13.113 -14.773,-21.023 0,-3.072 0.592,-6.258 2.598,-8.74 1.893,-2.362 5.201,-3.899 8.277,-3.899 9.811,0 14.9,13.229 14.9,21.73 0,2.13 -0.241,5.906 -2.957,8.627 z" /><g
       id="g1348"
       transform="matrix(1.25,0,0,-1.25,340.41081,188.67812)"
       style="fill:#000000"><path
         d="m 0,0 -7.512,0 0,7.511 c 0,0.573 -0.465,1.039 -1.038,1.039 l -2.138,0 c -0.576,0 -1.041,-0.466 -1.041,-1.039 l 0,-7.511 -7.512,0 c -0.572,0 -1.039,-0.467 -1.039,-1.04 l 0,-2.14 c 0,-0.574 0.467,-1.039 1.039,-1.039 l 7.512,0 0,-7.512 c 0,-0.575 0.465,-1.04 1.041,-1.04 l 2.138,0 c 0.573,0 1.038,0.465 1.038,1.04 l 0,7.512 7.512,0 c 0.572,0 1.039,0.465 1.039,1.039 l 0,2.14 C 1.039,-0.467 0.572,0 0,0"
         style="fill:#000000;fill-opacity:1;fill-rule:nonzero;stroke:none"
         id="path1350"
         inkscape:connector-curvature="0" /></g></g><rect
     y="82.254021"
     x="212.73128"
     height="30.56139"
     width="29.962151"
     id="rect3969"
     style="fill:none;stroke:none" /></g><g
   id="g4091"
   transform="matrix(1.0012632,0,0,0.98163075,-0.26873096,0.81338426)"><path
     d="m 241.64475,29.278624 c 0,3.421014 -2.79681,6.194614 -6.24852,6.194614 -3.45076,0 -6.24819,-2.7736 -6.24819,-6.194614 0,-3.422882 2.79743,-6.197096 6.24819,-6.197096 3.45171,0 6.24852,2.774214 6.24852,6.197096 z m -21.63316,-6.197096 c -3.45077,0 -6.2482,2.774214 -6.2482,6.197096 0,3.421014 2.79743,6.194614 6.2482,6.194614 3.4508,0 6.24823,-2.7736 6.24823,-6.194614 0,-3.422882 -2.79743,-6.197096 -6.24823,-6.197096 z"
     id="Flickr"
     inkscape:connector-curvature="0" /><rect
     y="13.718267"
     x="212.73129"
     height="30.56139"
     width="29.962151"
     id="rect3978"
     style="fill:none;stroke:none" /></g><g
   id="g4097"
   transform="matrix(0.98163037,0,0,0.98163075,5.1895345,0.8133896)"><path
     d="m 272.34874,17.559385 c 0.39,0.88566 0.64268,2.35666 0.26567,3.433659 1.54167,1.316339 2.07134,4.516338 1.32734,7.131337 2.19732,0.16766 4.81432,-0.0807 6.50399,0.593656 -1.57933,-0.203 -3.73633,-0.601326 -5.77333,-0.462666 -0.38599,0.0263 -0.95799,-0.0147 -0.92999,0.528336 2.35833,0.18533 4.70133,0.38667 6.63766,0.991 -1.92033,-0.31367 -4.25133,-0.79133 -6.63766,-0.858 -0.98568,1.944997 -2.969,2.900995 -5.70734,3.102325 0.29434,0.64034 0.858,0.88434 0.99567,1.91467 0.20533,1.53934 -0.32133,3.79366 0.19832,4.81966 0.24934,0.49167 0.65567,0.50467 0.92968,0.92501 -0.67068,0.79366 -2.33367,-0.089 -2.52267,-0.92501 -0.32433,-1.43166 0.494,-3.65133 -0.39766,-4.62166 0.063,1.56134 -0.36934,3.75467 0.0663,5.14966 0.17167,0.54867 0.66734,0.76034 0.531,1.25501 -3.11732,0.31666 -1.81467,-4.03467 -2.324,-6.603 -0.47032,0.0333 -0.26367,0.70434 -0.26533,0.99066 -0.0133,2.508 0.51334,5.948 -2.19,5.61234 -0.079,-0.527 0.36266,-0.70634 0.53101,-1.18767 0.493,-1.41133 -0.0923,-3.514 0.13366,-5.217 -1.03167,0.77767 0.10832,3.49333 -0.53101,4.88567 -0.36833,0.80133 -1.55532,1.15 -2.45566,0.79233 0.11733,-0.59667 0.73334,-0.50034 0.99467,-1.05634 0.36533,-0.77499 0.003,-1.89133 0.133,-3.03699 -1.90966,0.381 -3.391,-0.0553 -4.116,-1.25467 -0.32434,-0.53833 -0.40466,-1.17332 -0.79666,-1.65032 -0.39,-0.47735 -1.01334,-0.54168 -1.194,-1.18801 2.365,-0.569338 2.45565,2.434 4.57965,2.50833 0.65134,0.0237 0.99001,-0.188 1.59267,-0.32967 0.16868,-0.75733 0.52967,-1.322 1.062,-1.71767 -2.643,-0.36166 -4.82566,-1.184658 -5.84066,-3.167995 -2.40266,0.11834 -4.60133,0.439 -6.63766,0.92367 1.84833,-0.67133 4.128,-0.912 6.57166,-0.991 -0.144,-0.865326 -1.40633,-0.627326 -2.19,-0.593996 -1.45633,0.0647 -3.28966,0.245666 -4.44733,0.462996 1.678,-0.598326 4.03267,-0.523656 6.30599,-0.528326 -0.69532,-2.179999 -0.45432,-5.642998 1.062,-6.932667 -0.42966,-1.083 -0.29632,-2.854329 0.26534,-3.697659 1.693,0.076 2.71966,0.81433 3.78334,1.519 1.319,-0.375 2.70599,-0.56167 4.51332,-0.462341 0.76,0.042 1.55067,0.383671 2.123,0.32967 0.56166,-0.0527 1.18067,-0.682999 1.726,-0.923669 0.71033,-0.31366 1.31133,-0.43333 2.124,-0.46266 z"
     id="Github__x28_alt_x29_"
     inkscape:connector-curvature="0" /><rect
     y="13.718267"
     x="249.88434"
     height="30.56139"
     width="29.962151"
     id="rect3984"
     style="fill:none;stroke:none" /></g><g
   id="g3992"
   transform="matrix(1.0012632,0,0,0.98163075,-38.763361,-66.463418)"><path
     d="m 348.92967,87.430784 c -3.28705,-0.107187 -5.51144,1.736523 -6.67603,5.5335 0.59977,-0.246947 1.18272,-0.37174 1.75097,-0.37174 1.19875,0 1.72943,0.672808 1.58757,2.021836 -0.0701,0.816768 -0.59977,2.005281 -1.58757,3.565261 -0.99148,1.562341 -1.73206,2.342339 -2.22412,2.342339 -0.63891,0 -1.2203,-1.207168 -1.75123,-3.618339 -0.17812,-0.71011 -0.49653,-2.518349 -0.95234,-5.429194 -0.42743,-2.695951 -1.55683,-3.955652 -3.39318,-3.77859 -0.77684,0.07117 -1.94065,0.782619 -3.49381,2.129023 -1.13308,1.029305 -2.28112,2.05887 -3.44809,3.087387 l 1.1118,1.435455 c 1.06109,-0.745576 1.68188,-1.11652 1.85421,-1.11652 0.81363,0 1.57365,1.276251 2.28061,3.828759 0.63392,2.344181 1.2731,4.685199 1.90991,7.025959 0.94866,2.55435 2.11799,3.83192 3.49355,3.83192 2.2249,0 4.94896,-2.0925 8.1614,-6.27882 3.10788,-4.007929 4.71252,-7.165717 4.82077,-9.473906 0.14265,-3.084762 -1.0054,-4.664446 -3.44442,-4.73433 z"
     id="Vimeo"
     inkscape:connector-curvature="0" /><rect
     y="82.254021"
     x="325.98822"
     height="30.56139"
     width="29.962151"
     id="rect3990"
     style="fill:none;stroke:none" /></g><g
   id="g4078"
   transform="matrix(1.0012632,0,0,0.98163075,-0.51864135,1.0581869)"><g
     style="fill:#000000"
     transform="matrix(0.51111391,0,0,-0.51112422,48.497091,35.779477)"
     id="g1356"><path
       inkscape:connector-curvature="0"
       id="path1358"
       style="fill:#000000;fill-opacity:1;fill-rule:nonzero;stroke:none"
       d="m 0,0 c 0,-2.62 -2.131,-4.75 -4.751,-4.75 l -30.414,0 c -2.62,0 -4.751,2.13 -4.751,4.75 l 0,20.296 7.4,0 c -0.638,-1.572 -0.998,-3.289 -0.998,-5.089 0,-7.473 6.08,-13.556 13.556,-13.556 7.476,0 13.556,6.083 13.556,13.556 0,1.8 -0.362,3.517 -1,5.089 L 0,20.296 0,0 z m -27.033,20.296 c 1.587,2.197 4.163,3.638 7.075,3.638 2.912,0 5.488,-1.441 7.075,-3.638 1.033,-1.435 1.652,-3.189 1.652,-5.089 0,-4.81 -3.917,-8.724 -8.727,-8.724 -4.812,0 -8.726,3.914 -8.726,8.724 0,1.9 0.618,3.654 1.651,5.089 m 25.03,13.985 1.096,0.004 0,-1.091 0,-7.311 -8.375,-0.028 -0.029,8.403 7.308,0.023 z m -2.748,5.714 -30.414,0 c -5.283,0 -9.581,-4.297 -9.581,-9.58 l 0,-10.119 0,-20.296 c 0,-5.283 4.298,-9.58 9.581,-9.58 l 30.414,0 c 5.283,0 9.581,4.297 9.581,9.58 l 0,20.296 0,10.119 c 0,5.283 -4.298,9.58 -9.581,9.58" /></g><rect
     y="13.468886"
     x="23.370476"
     height="30.56139"
     width="29.962151"
     id="rect4026"
     style="fill:none;stroke:none" /></g><g
   id="g4035"
   transform="matrix(1.0012632,0,0,0.98163075,-38.811051,-66.463418)"><path
     d="m 372.6548,103.31302 c 0.52653,0.5258 0.84679,1.23927 0.84872,2.03364 -0.002,0.79294 -0.32219,1.5064 -0.84679,2.03027 l -0.002,7.3e-4 c -0.52556,0.52314 -1.24337,0.84292 -2.04162,0.84292 -0.79727,0 -1.5134,-0.32074 -2.03872,-0.84389 -0.52411,-0.52363 -0.84679,-1.23638 -0.84679,-2.03027 0,-0.79438 0.32268,-1.50954 0.84679,-2.03437 v 7.2e-4 c 0.52556,-0.52363 1.24168,-0.84583 2.03872,-0.84583 0.79825,0 1.51534,0.32293 2.04162,0.84583 z m 0,-7.3e-4 v 7.3e-4 c 7.2e-4,0 7.2e-4,0 7.2e-4,0 l -7.2e-4,-7.3e-4 z m -4.08035,4.06561 c 0,0 0,0 0,-7.2e-4 -7.2e-4,0 -7.2e-4,0 -7.2e-4,0 l 7.2e-4,7.2e-4 z m -0.84437,-13.475957 v 4.150634 c 2.70968,0.0017 5.27251,1.066087 7.19047,2.986953 1.91748,1.91482 2.97753,4.48152 2.98189,7.20062 h 0.002 v 0.008 h 4.16777 c -0.003,-3.95378 -1.61049,-7.53513 -4.20883,-10.135407 -2.59882,-2.599789 -6.17872,-4.207868 -10.13275,-4.210288 z m 0.008,-7.391666 v 4.148698 c 9.68617,0.0072 17.56016,7.893316 17.56669,17.588665 h 4.16076 c -0.003,-5.99227 -2.43844,-11.421297 -6.3746,-15.360107 -3.93736,-3.9376 -9.36276,-6.374597 -15.35285,-6.377256 z"
     id="RSS"
     inkscape:connector-curvature="0" /><rect
     y="82.254021"
     x="363.74051"
     height="30.56139"
     width="29.962151"
     id="rect4033"
     style="fill:none;stroke:none" /></g><rect
   style="fill:none;stroke:none"
   id="rect4039"
   width="59.92432"
   height="61.12278"
   x="371.53067"
   y="-448.30737" /><g
   id="g4043"
   transform="matrix(1.0012629,0,0,0.98163075,-38.858613,-66.463418)"><path
     sodipodi:nodetypes="sscccsss"
     inkscape:connector-curvature="0"
     d="m 416.56092,87.208061 c -6.93872,0 -12.56356,4.222755 -12.56356,9.431883 0,2.801958 1.62991,5.317446 4.21437,7.045076 -0.23563,1.31638 -0.68345,2.9047 -1.53638,4.18311 1.10923,0 3.90392,-1.29572 5.8831,-2.28852 1.25747,0.31715 2.60233,0.49165 4.00247,0.49165 6.93871,0 12.56356,-4.22275 12.56356,-9.431316 0,-5.209128 -5.62485,-9.431883 -12.56356,-9.431883 z"
     style="fill-rule:evenodd"
     id="Hype_Machine" /><rect
     y="82.254021"
     x="401.49283"
     height="30.56139"
     width="29.96216"
     id="rect4041"
     style="fill:none;stroke:none" /></g><g
   id="g4060"
   transform="matrix(0.9913498,0,0,0.98163075,-34.549411,-66.463418)"><path
     d="m 441.90389,89.762096 0,0.815778 13.05246,7.342009 13.05246,-7.342009 0,-0.815778 c 0,-0.897357 -0.7342,-1.631558 -1.63156,-1.631558 l -22.8418,0 c -0.89736,0 -1.63156,0.734201 -1.63156,1.631558 z m 0,3.263115 0,12.236679 c 0,0.89736 0.7342,1.63156 1.63156,1.63156 l 22.8418,0 c 0.89736,0 1.63156,-0.7342 1.63156,-1.63156 l 0,-12.236679 -13.05246,7.342009 -13.05246,-7.342009"
     style="fill:#000000;fill-opacity:1;fill-rule:evenodd;stroke:none"
     id="path130"
     inkscape:connector-curvature="0" /><rect
     y="82.254021"
     x="439.54477"
     height="30.56139"
     width="30.26177"
     id="rect4058"
     style="fill:none;stroke:none" /></g><g
   id="g4107"><path
     d="m 28.915356,77.084314 c -0.618,0 -1.120334,-0.479141 -1.120334,-1.067854 v -8.697375 l -4.913666,-0.0022 6.676333,-6.942953 6.679,6.94517 h -4.920333 v 6.408076 h 5.283333 l 3.462,3.357153 H 28.915356 z m 23.966,-7.016423 h -4.915335 v -8.699909 c 0,-0.588713 -0.502666,-1.067854 -1.120332,-1.067854 h -11.144 l 3.459665,3.357154 h 5.282667 v 6.408076 l -4.917334,0.0025 6.678336,6.943903 6.676333,-6.943903 z"
     id="Retweet"
     inkscape:connector-curvature="0" /><rect
     y="53.81356"
     x="22.881355"
     height="30.084745"
     width="29.926937"
     id="rect4105"
     style="fill:none;fill-opacity:1;stroke:none" /></g></svg>